<svg width="24" height="24" viewBox="0 0 24 24" fill="none" xmlns="http://www.w3.org/2000/svg">
<path fill-rule="evenodd" clip-rule="evenodd" d="M5.46228 0.853191C9.80733 0.371853 14.1922 0.371853 18.5373 0.853191C20.911 1.11819 22.8248 2.98694 23.1035 5.36944C23.6185 9.77528 23.6185 14.2261 23.1035 18.6319C22.8248 21.0144 20.911 22.8832 18.5385 23.1494C14.1931 23.6309 9.80774 23.6309 5.46228 23.1494C3.08853 22.8832 1.17478 21.0144 0.896032 18.6332C0.38101 14.2269 0.38101 9.77569 0.896032 5.36944C1.17478 2.98694 3.08853 1.11819 5.46228 0.853191ZM18.2498 4.50069C17.9183 4.50069 17.6003 4.63239 17.3659 4.86681C17.1315 5.10123 16.9998 5.41917 16.9998 5.75069C16.9998 6.08221 17.1315 6.40015 17.3659 6.63457C17.6003 6.86899 17.9183 7.00069 18.2498 7.00069C18.5813 7.00069 18.8992 6.86899 19.1337 6.63457C19.3681 6.40015 19.4998 6.08221 19.4998 5.75069C19.4998 5.41917 19.3681 5.10123 19.1337 4.86681C18.8992 4.63239 18.5813 4.50069 18.2498 4.50069ZM6.06228 12.0007C6.06228 10.426 6.68784 8.91574 7.80134 7.80224C8.91483 6.68875 10.4251 6.06319 11.9998 6.06319C13.5745 6.06319 15.0847 6.68875 16.1982 7.80224C17.3117 8.91574 17.9373 10.426 17.9373 12.0007C17.9373 13.5754 17.3117 15.0856 16.1982 16.1991C15.0847 17.3126 13.5745 17.9382 11.9998 17.9382C10.4251 17.9382 8.91483 17.3126 7.80134 16.1991C6.68784 15.0856 6.06228 13.5754 6.06228 12.0007Z" fill="#2E3F98"/>
</svg>
