<svg width="54" height="54" viewBox="0 0 54 54" fill="none" xmlns="http://www.w3.org/2000/svg">
<path d="M40.75 45.5897H52M52 45.5897L45.75 39.1795M52 45.5897L45.75 52M27 2L20.75 8.41026L27 14.8205" stroke="white" stroke-width="3" stroke-linecap="round" stroke-linejoin="round"/>
<path d="M23.25 8.41016C28.2228 8.41016 32.9919 10.4362 36.5083 14.0427C40.0246 17.6492 42 22.5406 42 27.6409C42 32.7412 40.0246 37.6327 36.5083 41.2391C32.9919 44.8456 28.2228 46.8717 23.25 46.8717H2" stroke="white" stroke-width="3" stroke-linecap="round" stroke-linejoin="round"/>
<path d="M13.89 10.9746C11.0351 12.6616 8.66398 15.0903 7.01551 18.0162C5.36704 20.9422 4.49941 24.262 4.5 27.6413C4.5 31.9695 5.895 35.9644 8.25 39.1797" stroke="white" stroke-width="3" stroke-linecap="round" stroke-linejoin="round"/>
</svg>
