<svg width="50" height="50" viewBox="0 0 50 50" fill="none" xmlns="http://www.w3.org/2000/svg">
<path d="M25 50L24.3572 49.7808C17.1788 47.4095 10.9989 43.1712 6.64551 37.6341C2.29217 32.097 -0.0265167 25.5257 0.000228797 18.8009V8.42204L25 0L49.9998 8.42204V18.8009C50.0229 25.523 47.7025 32.0909 43.3494 37.6249C38.9963 43.1589 32.8184 47.3947 25.6429 49.7652L25 50ZM3.57163 10.5823V18.8009C3.55296 24.786 5.58584 30.6381 9.40669 35.5982C13.2275 40.5583 18.6601 44.3978 25 46.6187C31.3399 44.3978 36.7725 40.5583 40.5934 35.5982C44.4142 30.6381 46.4471 24.786 46.4284 18.8009V10.5823L25 3.35003L3.57163 10.5823Z" fill="white"/>
</svg>
