<svg width="54" height="54" viewBox="0 0 54 54" fill="none" xmlns="http://www.w3.org/2000/svg">
<path d="M27 2H7.55556C6.08213 2 4.66905 2.58532 3.62718 3.62718C2.58532 4.66905 2 6.08213 2 7.55556V46.4444C2 47.9179 2.58532 49.3309 3.62718 50.3728C4.66905 51.4147 6.08213 52 7.55556 52H46.4444C47.9179 52 49.3309 51.4147 50.3728 50.3728C51.4147 49.3309 52 47.9179 52 46.4444V27" stroke="white" stroke-width="3" stroke-linecap="round" stroke-linejoin="round"/>
<path d="M32.5569 35.3333H18.668M18.668 35.3333V21.4444M18.668 35.3333L52.0013 2M38.1124 2H52.0013M52.0013 2V15.8889" stroke="white" stroke-width="3" stroke-linecap="round" stroke-linejoin="round"/>
</svg>
