<svg width="54" height="54" viewBox="0 0 54 54" fill="none" xmlns="http://www.w3.org/2000/svg">
<path d="M21.7531 36.7229L29.1605 39.5007C29.1605 39.5007 47.679 35.334 50.1481 35.334C52.6173 35.334 52.6173 38.1118 50.1481 40.8895C47.679 43.6673 39.037 52.0007 31.6296 52.0007C24.2222 52.0007 19.284 47.834 14.3457 47.834H2" stroke="white" stroke-width="3" stroke-linecap="round" stroke-linejoin="round"/>
<path d="M2 31.1667C4.46914 28.3889 9.40741 24.2222 14.3457 24.2222C19.284 24.2222 31.0123 29.7778 32.8642 32.5556C34.716 35.3333 29.1605 39.5 29.1605 39.5M16.8148 15.8889V4.77778C16.8148 4.04107 17.075 3.33453 17.538 2.81359C18.0011 2.29266 18.6291 2 19.284 2H48.9136C49.5684 2 50.1965 2.29266 50.6595 2.81359C51.1226 3.33453 51.3827 4.04107 51.3827 4.77778V27" stroke="white" stroke-width="3" stroke-linecap="round" stroke-linejoin="round"/>
<path d="M27.9258 2H40.2715V14.5H27.9258V2Z" stroke="white" stroke-width="3" stroke-linecap="round" stroke-linejoin="round"/>
</svg>
