<svg width="26" height="29" viewBox="0 0 26 29" fill="none" xmlns="http://www.w3.org/2000/svg">
<path d="M3.71429 19.6294H7.42857V29H3.71429V19.6294ZM7.42857 5.76375V0H3.71429V5.76375C2.47518 6.19131 1.43084 7.03263 0.765837 8.139C0.100838 9.24537 -0.141998 10.5456 0.0802481 11.8098C0.302494 13.074 0.975515 14.2208 1.98036 15.0476C2.9852 15.8743 4.25716 16.3278 5.57143 16.3278C6.88571 16.3278 8.15767 15.8743 9.16251 15.0476C10.1674 14.2208 10.8404 13.074 11.0626 11.8098C11.2849 10.5456 11.042 9.24537 10.377 8.139C9.71203 7.03263 8.66768 6.19131 7.42857 5.76375ZM5.57143 12.6875C5.07889 12.6875 4.60652 12.4965 4.25824 12.1566C3.90996 11.8167 3.71429 11.3557 3.71429 10.875C3.71429 10.3943 3.90996 9.93328 4.25824 9.59337C4.60652 9.25346 5.07889 9.0625 5.57143 9.0625C6.06398 9.0625 6.53635 9.25346 6.88463 9.59337C7.23291 9.93328 7.42857 10.3943 7.42857 10.875C7.42857 11.3557 7.23291 11.8167 6.88463 12.1566C6.53635 12.4965 6.06398 12.6875 5.57143 12.6875ZM18.5714 0H22.2857V9.37063H18.5714V0ZM26 18.125C26.0028 17.1275 25.7245 16.1484 25.1954 15.295C24.6663 14.4415 23.9069 13.7465 23.0002 13.2861C22.0935 12.8257 21.0745 12.6176 20.0547 12.6845C19.0349 12.7514 18.0537 13.0909 17.2183 13.6656C16.383 14.2404 15.7257 15.0284 15.3185 15.9433C14.9112 16.8582 14.7697 17.8648 14.9094 18.853C15.0492 19.8411 15.4647 20.7727 16.1106 21.5458C16.7564 22.3189 17.6078 22.9037 18.5714 23.2362V29H22.2857V23.2362C23.3694 22.8623 24.3081 22.1704 24.9731 21.2553C25.6381 20.3402 25.9967 19.2468 26 18.125ZM20.4286 19.9375C19.936 19.9375 19.4636 19.7465 19.1154 19.4066C18.7671 19.0667 18.5714 18.6057 18.5714 18.125C18.5714 17.6443 18.7671 17.1833 19.1154 16.8434C19.4636 16.5035 19.936 16.3125 20.4286 16.3125C20.9211 16.3125 21.3935 16.5035 21.7418 16.8434C22.09 17.1833 22.2857 17.6443 22.2857 18.125C22.2857 18.6057 22.09 19.0667 21.7418 19.4066C21.3935 19.7465 20.9211 19.9375 20.4286 19.9375Z" fill="white"/>
</svg>
