<svg width="1620" height="283" viewBox="0 0 1620 283" fill="none" xmlns="http://www.w3.org/2000/svg">
<path d="M365.734 84.3419L366.06 83.9626L366.03 83.9367L365.996 83.9159L365.734 84.3419ZM716.718 125.114L716.551 124.643L716.54 124.647L716.529 124.651L716.718 125.114ZM1046.52 171.307L1046.86 170.944L1046.85 170.934L1046.84 170.924L1046.52 171.307ZM1424.11 235.363L1423.93 234.896L1423.91 234.902L1423.89 234.91L1424.11 235.363ZM1618.84 271.496C1619.11 271.532 1619.36 271.339 1619.4 271.065L1619.98 266.602C1620.01 266.328 1619.82 266.077 1619.55 266.042C1619.27 266.006 1619.02 266.2 1618.99 266.473L1618.47 270.44L1614.5 269.926C1614.23 269.891 1613.98 270.084 1613.94 270.358C1613.91 270.632 1614.1 270.882 1614.38 270.918L1618.84 271.496ZM0.949309 36.9416C2.53516 36.2446 4.11339 35.558 5.6842 34.8818L5.2888 33.9633C3.71562 34.6405 2.13507 35.3281 0.546947 36.0261L0.949309 36.9416ZM15.07 30.9293C18.2595 29.6168 21.4188 28.3488 24.5497 27.1251L24.1857 26.1937C21.0491 27.4196 17.8842 28.6899 14.6895 30.0045L15.07 30.9293ZM34.1202 23.4908C37.3569 22.2985 40.564 21.1553 43.7435 20.0613L43.4182 19.1157C40.2316 20.2122 37.0177 21.3577 33.7746 22.5524L34.1202 23.4908ZM53.4286 16.8538C56.7073 15.8114 59.9579 14.8228 63.1827 13.8882L62.9044 12.9277C59.671 13.8648 56.4122 14.8559 53.1256 15.9008L53.4286 16.8538ZM73.0106 11.1862C76.3438 10.3205 79.6513 9.51406 82.9356 8.76682L82.7138 7.79174C79.4193 8.54129 76.102 9.35013 72.7592 10.2183L73.0106 11.1862ZM92.9312 6.66207C96.3039 6.00999 99.6545 5.42196 102.986 4.89788L102.831 3.91003C99.4873 4.43596 96.1252 5.02601 92.7413 5.68025L92.9312 6.66207ZM113.094 3.49731C116.493 3.09079 119.876 2.75219 123.245 2.48141L123.165 1.48462C119.783 1.75646 116.387 2.09635 112.975 2.50439L113.094 3.49731ZM133.426 1.86787C136.835 1.73158 140.232 1.66561 143.623 1.66985L143.624 0.669851C140.22 0.66559 136.808 0.731831 133.386 0.868671L133.426 1.86787ZM153.819 1.89493C157.214 2.04074 160.605 2.2573 163.996 2.54451L164.081 1.54807C160.676 1.2597 157.271 1.04226 153.862 0.895853L153.819 1.89493ZM174.139 3.61361C177.498 4.03708 180.861 4.52966 184.231 5.09125L184.395 4.10485C181.012 3.54111 177.637 3.04661 174.264 2.62146L174.139 3.61361ZM194.258 6.9612C197.565 7.64282 200.881 8.39015 204.211 9.20313L204.448 8.23167C201.107 7.41589 197.779 6.6659 194.46 5.98179L194.258 6.9612ZM214.082 11.7938C217.327 12.7042 220.588 13.6758 223.866 14.7086L224.167 13.7548C220.878 12.719 217.608 11.7443 214.352 10.831L214.082 11.7938ZM233.563 17.9224C236.747 19.0289 239.951 20.1917 243.176 21.4108L243.529 20.4754C240.296 19.2533 237.084 18.0874 233.892 16.9778L233.563 17.9224ZM252.668 25.1346C255.778 26.3986 258.911 27.7134 262.068 29.0789L262.465 28.1611C259.302 26.7927 256.162 25.475 253.044 24.2082L252.668 25.1346ZM271.39 33.2261C274.45 34.6241 277.535 36.0684 280.645 37.5589L281.077 36.6571C277.961 35.1641 274.872 33.7172 271.806 32.3165L271.39 33.2261ZM289.842 42.0628C292.849 43.5656 295.881 45.1101 298.939 46.6963L299.399 45.8086C296.337 44.2202 293.301 42.6735 290.289 41.1683L289.842 42.0628ZM307.952 51.4486C310.919 53.0383 313.912 54.6658 316.932 56.331L317.415 55.4553C314.391 53.7882 311.395 52.1588 308.424 50.5671L307.952 51.4486ZM325.894 61.3375C328.811 62.9875 331.753 64.6715 334.723 66.3895L335.224 65.5239C332.251 63.8044 329.306 62.1188 326.386 60.4671L325.894 61.3375ZM343.538 71.5415C346.453 73.2621 349.394 75.0142 352.363 76.7978L352.878 75.9407C349.907 74.1557 346.964 72.4023 344.046 70.6803L343.538 71.5415ZM361.063 82.067C362.526 82.9599 363.996 83.8602 365.472 84.7678L365.996 83.9159C364.518 83.0077 363.048 82.1069 361.584 81.2134L361.063 82.067ZM365.408 84.7212C366.699 85.8296 367.984 86.9259 369.266 88.0101L369.912 87.2468C368.632 86.1641 367.348 85.0694 366.06 83.9626L365.408 84.7212ZM376.905 94.3775C379.534 96.534 382.144 98.639 384.736 100.693L385.357 99.9094C382.77 97.8589 380.164 95.7574 377.54 93.6044L376.905 94.3775ZM392.644 106.842C395.327 108.888 397.992 110.879 400.641 112.815L401.231 112.007C398.588 110.076 395.928 108.089 393.251 106.047L392.644 106.842ZM408.771 118.62C411.557 120.562 414.325 122.443 417.078 124.263L417.63 123.429C414.884 121.614 412.122 119.738 409.343 117.8L408.771 118.62ZM425.51 129.677C428.381 131.465 431.236 133.187 434.079 134.843L434.582 133.979C431.749 132.328 428.901 130.611 426.038 128.828L425.51 129.677ZM442.798 139.74C445.769 141.345 448.728 142.878 451.676 144.341L452.12 143.445C449.183 141.988 446.234 140.46 443.273 138.86L442.798 139.74ZM460.726 148.62C463.81 150.007 466.885 151.316 469.953 152.549L470.326 151.621C467.27 150.393 464.208 149.09 461.136 147.708L460.726 148.62ZM479.332 156.085C482.51 157.205 485.684 158.244 488.856 159.202L489.146 158.245C485.987 157.291 482.828 156.257 479.664 155.142L479.332 156.085ZM498.514 161.875C501.768 162.693 505.025 163.428 508.287 164.082L508.484 163.102C505.238 162.451 501.997 161.719 498.757 160.905L498.514 161.875ZM518.156 165.813C521.46 166.31 524.772 166.725 528.097 167.061L528.197 166.066C524.889 165.732 521.592 165.318 518.305 164.824L518.156 165.813ZM538.086 167.831C541.407 168.008 544.744 168.108 548.098 168.133L548.106 167.133C544.766 167.108 541.445 167.008 538.139 166.832L538.086 167.831ZM558.113 167.989C561.425 167.869 564.757 167.68 568.112 167.422L568.035 166.424C564.693 166.682 561.375 166.871 558.077 166.989L558.113 167.989ZM578.079 166.461C581.362 166.082 584.669 165.641 588.004 165.138L587.855 164.149C584.531 164.65 581.235 165.09 577.964 165.467L578.079 166.461ZM597.88 163.484C601.127 162.887 604.402 162.235 607.706 161.529L607.496 160.551C604.202 161.256 600.937 161.906 597.699 162.5L597.88 163.484ZM617.481 159.304C620.688 158.53 623.925 157.708 627.192 156.838L626.935 155.872C623.675 156.74 620.446 157.56 617.246 158.332L617.481 159.304ZM636.814 154.167C639.975 153.255 643.166 152.3 646.388 151.305L646.093 150.349C642.876 151.343 639.691 152.296 636.536 153.207L636.814 154.167ZM655.925 148.268C659.064 147.241 662.234 146.176 665.435 145.075L665.11 144.13C661.913 145.229 658.748 146.292 655.614 147.318L655.925 148.268ZM674.872 141.76C677.965 140.65 681.088 139.509 684.242 138.337L683.894 137.4C680.743 138.571 677.624 139.711 674.534 140.818L674.872 141.76ZM693.608 134.8C696.7 133.615 699.822 132.401 702.976 131.159L702.609 130.229C699.459 131.469 696.339 132.682 693.25 133.867L693.608 134.8ZM712.22 127.476C713.774 126.849 715.337 126.217 716.907 125.578L716.529 124.651C714.961 125.29 713.399 125.922 711.846 126.548L712.22 127.476ZM716.885 125.586C718.465 125.026 720.036 124.473 721.598 123.927L721.269 122.983C719.705 123.529 718.132 124.083 716.551 124.643L716.885 125.586ZM730.87 120.739C734.044 119.665 737.181 118.622 740.284 117.61L739.974 116.659C736.868 117.673 733.727 118.717 730.55 119.792L730.87 120.739ZM749.675 114.607C752.839 113.617 755.967 112.66 759.059 111.736L758.773 110.778C755.676 111.703 752.545 112.661 749.376 113.653L749.675 114.607ZM768.557 108.975C771.771 108.066 774.946 107.196 778.083 106.365L777.827 105.398C774.684 106.231 771.504 107.103 768.285 108.012L768.557 108.975ZM787.624 103.925C790.852 103.131 794.04 102.38 797.19 101.671L796.971 100.696C793.814 101.406 790.619 102.159 787.385 102.954L787.624 103.925ZM806.827 99.6136C810.102 98.9526 813.336 98.3402 816.53 97.7765L816.357 96.7917C813.154 97.3569 809.912 97.9708 806.629 98.6333L806.827 99.6136ZM826.264 96.1921C829.559 95.702 832.813 95.2665 836.029 94.8855L835.911 93.8925C832.686 94.2746 829.422 94.7115 826.117 95.203L826.264 96.1921ZM845.825 93.8841C849.138 93.6006 852.411 93.3781 855.647 93.2167L855.597 92.218C852.349 92.38 849.064 92.6033 845.74 92.8877L845.825 93.8841ZM865.486 92.9131C868.803 92.8753 872.083 92.9048 875.328 93.0019L875.358 92.0023C872.098 91.9049 868.805 91.8752 865.475 91.9131L865.486 92.9131ZM885.157 93.5094C888.453 93.7527 891.717 94.0687 894.952 94.4576L895.071 93.4647C891.821 93.074 888.542 92.7566 885.23 92.5121L885.157 93.5094ZM904.691 95.8623C907.935 96.4094 911.154 97.0326 914.35 97.7318L914.564 96.7549C911.352 96.0522 908.117 95.4261 904.857 94.8762L904.691 95.8623ZM923.908 100.066C927.069 100.919 930.213 101.849 933.343 102.856L933.65 101.904C930.504 100.892 927.345 99.958 924.169 99.1005L923.908 100.066ZM942.639 106.084C945.694 107.224 948.741 108.438 951.782 109.727L952.172 108.807C949.118 107.512 946.058 106.292 942.989 105.147L942.639 106.084ZM960.763 113.757C963.702 115.147 966.639 116.608 969.578 118.139L970.04 117.253C967.09 115.716 964.141 114.249 961.191 112.853L960.763 113.757ZM978.228 122.843C981.052 124.442 983.88 126.106 986.717 127.834L987.238 126.98C984.392 125.246 981.554 123.577 978.721 121.973L978.228 122.843ZM995.053 133.082C997.772 134.848 1000.5 136.673 1003.24 138.558L1003.81 137.733C1001.06 135.844 998.324 134.014 995.597 132.243L995.053 133.082ZM1011.3 144.236C1013.94 146.136 1016.58 148.089 1019.25 150.096L1019.85 149.298C1017.18 147.287 1014.53 145.33 1011.89 143.426L1011.3 144.236ZM1027.08 156.117C1029.63 158.111 1032.19 160.152 1034.77 162.241L1035.4 161.463C1032.82 159.371 1030.25 157.327 1027.7 155.33L1027.08 156.117ZM1042.38 168.488C1043.64 169.543 1044.92 170.61 1046.19 171.689L1046.84 170.924C1045.56 169.845 1044.29 168.776 1043.02 167.719L1042.38 168.488ZM1046.17 171.669C1047.4 172.836 1048.62 173.993 1049.84 175.14L1050.53 174.411C1049.31 173.265 1048.09 172.109 1046.86 170.944L1046.17 171.669ZM1057.12 181.906C1059.6 184.194 1062.07 186.441 1064.52 188.646L1065.19 187.903C1062.74 185.7 1060.28 183.456 1057.8 181.171L1057.12 181.906ZM1071.94 195.231C1074.48 197.457 1077 199.638 1079.51 201.774L1080.15 201.013C1077.65 198.88 1075.13 196.702 1072.6 194.479L1071.94 195.231ZM1087.15 208.191C1089.73 210.323 1092.29 212.406 1094.84 214.442L1095.47 213.661C1092.92 211.629 1090.36 209.548 1087.79 207.42L1087.15 208.191ZM1102.73 220.621C1105.4 222.675 1108.06 224.676 1110.7 226.624L1111.29 225.819C1108.66 223.875 1106 221.878 1103.34 219.828L1102.73 220.621ZM1118.77 232.431C1121.53 234.368 1124.27 236.246 1127 238.065L1127.55 237.233C1124.83 235.418 1122.09 233.545 1119.34 231.613L1118.77 232.431ZM1135.39 243.502C1138.25 245.294 1141.09 247.022 1143.92 248.685L1144.42 247.823C1141.6 246.165 1138.77 244.442 1135.92 242.655L1135.39 243.502ZM1152.58 253.595C1155.53 255.203 1158.47 256.74 1161.41 258.209L1161.85 257.314C1158.93 255.852 1156 254.319 1153.06 252.717L1152.58 253.595ZM1170.42 262.514C1173.49 263.906 1176.55 265.221 1179.6 266.461L1179.98 265.535C1176.94 264.3 1173.89 262.99 1170.84 261.604L1170.42 262.514ZM1188.93 270.016C1192.09 271.141 1195.25 272.186 1198.41 273.152L1198.7 272.195C1195.56 271.234 1192.41 270.194 1189.27 269.074L1188.93 270.016ZM1208.02 275.842C1211.26 276.666 1214.5 277.407 1217.75 278.067L1217.95 277.087C1214.71 276.431 1211.49 275.693 1208.27 274.873L1208.02 275.842ZM1227.58 279.812C1230.87 280.312 1234.17 280.731 1237.48 281.069L1237.59 280.074C1234.29 279.738 1231 279.321 1227.73 278.823L1227.58 279.812ZM1247.44 281.838C1250.75 282.013 1254.08 282.109 1257.42 282.128L1257.43 281.128C1254.1 281.109 1250.79 281.013 1247.5 280.839L1247.44 281.838ZM1267.4 281.956C1270.69 281.826 1274.01 281.622 1277.35 281.346L1277.27 280.349C1273.94 280.624 1270.64 280.827 1267.36 280.957L1267.4 281.956ZM1287.27 280.322C1290.54 279.92 1293.83 279.45 1297.15 278.915L1296.99 277.928C1293.69 278.461 1290.41 278.929 1287.15 279.33L1287.27 280.322ZM1306.98 277.152C1310.22 276.515 1313.48 275.818 1316.77 275.061L1316.54 274.087C1313.26 274.841 1310.01 275.536 1306.79 276.171L1306.98 277.152ZM1326.43 272.689C1329.6 271.862 1332.8 270.983 1336.03 270.051L1335.75 269.09C1332.53 270.02 1329.34 270.897 1326.18 271.721L1326.43 272.689ZM1345.58 267.167C1348.72 266.178 1351.9 265.14 1355.1 264.056L1354.78 263.109C1351.58 264.191 1348.42 265.226 1345.28 266.213L1345.58 267.167ZM1364.48 260.773C1367.56 259.662 1370.67 258.508 1373.81 257.313L1373.46 256.379C1370.32 257.572 1367.22 258.723 1364.14 259.832L1364.48 260.773ZM1383.13 253.679C1386.18 252.463 1389.25 251.21 1392.36 249.919L1391.97 248.996C1388.87 250.284 1385.8 251.536 1382.76 252.75L1383.13 253.679ZM1401.51 246.04C1404.54 244.733 1407.6 243.392 1410.68 242.018L1410.28 241.104C1407.19 242.477 1404.14 243.817 1401.11 245.122L1401.51 246.04ZM1419.73 237.931C1421.25 237.234 1422.78 236.529 1424.32 235.817L1423.89 234.91C1422.36 235.621 1420.83 236.326 1419.31 237.022L1419.73 237.931ZM1424.28 235.83C1425.86 235.225 1427.43 234.632 1428.98 234.05L1428.63 233.113C1427.08 233.696 1425.51 234.291 1423.93 234.896L1424.28 235.83ZM1438.33 230.625C1441.52 229.483 1444.65 228.394 1447.72 227.357L1447.4 226.409C1444.32 227.448 1441.19 228.54 1437.99 229.684L1438.33 230.625ZM1457.17 224.276C1460.41 223.261 1463.57 222.311 1466.68 221.425L1466.4 220.463C1463.29 221.352 1460.11 222.305 1456.87 223.322L1457.17 224.276ZM1476.29 218.838C1479.6 218.005 1482.83 217.254 1485.99 216.585L1485.78 215.607C1482.61 216.279 1479.37 217.033 1476.05 217.868L1476.29 218.838ZM1495.73 214.75C1499.09 214.198 1502.38 213.75 1505.58 213.408L1505.48 212.413C1502.25 212.758 1498.95 213.208 1495.57 213.763L1495.73 214.75ZM1515.46 212.677C1518.86 212.543 1522.16 212.542 1525.39 212.674L1525.43 211.674C1522.18 211.542 1518.84 211.543 1515.42 211.677L1515.46 212.677ZM1535.26 213.523C1538.58 213.966 1541.82 214.567 1544.99 215.327L1545.22 214.355C1542.01 213.586 1538.74 212.98 1535.39 212.532L1535.26 213.523ZM1554.48 218.146C1557.58 219.251 1560.62 220.523 1563.61 221.965L1564.05 221.064C1561.02 219.607 1557.95 218.321 1554.82 217.205L1554.48 218.146ZM1572.31 226.704C1575.08 228.395 1577.82 230.242 1580.54 232.248L1581.13 231.443C1578.39 229.421 1575.63 227.557 1572.83 225.851L1572.31 226.704ZM1588.28 238.425C1590.72 240.529 1593.16 242.766 1595.6 245.139L1596.29 244.422C1593.85 242.036 1591.39 239.785 1588.93 237.667L1588.28 238.425ZM1602.52 252.248C1604.72 254.621 1606.92 257.104 1609.13 259.701L1609.89 259.053C1607.67 256.446 1605.46 253.952 1603.25 251.569L1602.52 252.248ZM1615.42 267.361C1616.45 268.652 1617.48 269.967 1618.51 271.306L1619.3 270.695C1618.26 269.353 1617.23 268.034 1616.2 266.739L1615.42 267.361Z" fill="black"/>
</svg>
