<svg width="1602" height="370" viewBox="0 0 1602 370" fill="none" xmlns="http://www.w3.org/2000/svg">
<path d="M362 99.3135L362.35 98.9566L362.322 98.9288L362.29 98.9059L362 99.3135ZM709.5 163.313L709.365 162.832L709.354 162.835L709.343 162.839L709.5 163.313ZM1035.5 231.313L1035.87 230.975L1035.86 230.964L1035.85 230.954L1035.5 231.313ZM1408 320.314L1407.85 319.836L1407.84 319.841L1407.82 319.847L1408 320.314ZM1599.9 369.304C1600.17 369.358 1600.44 369.181 1600.49 368.911L1601.36 364.496C1601.42 364.225 1601.24 363.962 1600.97 363.909C1600.7 363.855 1600.44 364.031 1600.38 364.302L1599.61 368.226L1595.68 367.45C1595.41 367.396 1595.15 367.572 1595.1 367.843C1595.04 368.114 1595.22 368.377 1595.49 368.431L1599.9 369.304ZM1.17033 27.7836C2.79898 27.1935 4.41934 26.6133 6.0316 26.0429L5.69809 25.1002C4.0834 25.6714 2.46066 26.2525 0.829673 26.8434L1.17033 27.7836ZM15.6593 22.7227C18.9289 21.625 22.1655 20.5696 25.3708 19.5566L25.0694 18.6031C21.8583 19.6179 18.616 20.6751 15.341 21.7747L15.6593 22.7227ZM35.1616 16.5662C38.4703 15.5915 41.7463 14.664 44.9914 13.7835L44.7296 12.8184C41.4772 13.7008 38.1944 14.6303 34.879 15.6069L35.1616 16.5662ZM54.8682 11.2266C58.2089 10.4043 61.518 9.63389 64.7978 8.91552L64.5839 7.93868C61.2954 8.65894 57.978 9.43128 54.6292 10.2556L54.8682 11.2266ZM74.7834 6.87245C78.1669 6.23008 81.5206 5.64516 84.8473 5.11777L84.6907 4.13011C81.3537 4.65913 77.99 5.2458 74.5969 5.89L74.7834 6.87245ZM94.9606 3.68172C98.3692 3.25515 101.751 2.89101 105.11 2.58942L105.021 1.59342C101.65 1.89608 98.2563 2.26147 94.8364 2.68946L94.9606 3.68172ZM115.289 1.86345C118.708 1.68367 122.105 1.57054 125.485 1.52416L125.471 0.524254C122.079 0.570812 118.668 0.684383 115.236 0.86483L115.289 1.86345ZM135.685 1.58838C139.095 1.67882 142.489 1.83873 145.872 2.06822L145.94 1.07051C142.543 0.840088 139.135 0.679538 135.711 0.588727L135.685 1.58838ZM156.03 2.97016C159.408 3.34119 162.778 3.78258 166.142 4.29445L166.293 3.30582C162.914 2.79187 159.531 2.34869 156.14 1.97614L156.03 2.97016ZM176.191 6.03499C179.515 6.68071 182.838 7.3956 186.163 8.17981L186.392 7.20651C183.055 6.4193 179.719 5.70162 176.382 5.05335L176.191 6.03499ZM196.044 10.7118C199.298 11.6116 202.557 12.5776 205.826 13.61L206.127 12.6564C202.847 11.6205 199.576 10.651 196.31 9.74798L196.044 10.7118ZM215.503 16.8507C218.68 17.9747 221.869 19.1608 225.072 20.4091L225.435 19.4774C222.223 18.2253 219.024 17.0356 215.836 15.908L215.503 16.8507ZM234.534 24.26C237.638 25.5756 240.756 26.9487 243.893 28.3793L244.308 27.4694C241.163 26.0352 238.036 24.6586 234.924 23.3393L234.534 24.26ZM253.117 32.7255C256.137 34.1933 259.175 35.7133 262.234 37.2856L262.692 36.3962C259.626 34.8206 256.581 33.2973 253.554 31.8261L253.117 32.7255ZM271.261 42.0429C274.221 43.6412 277.203 45.2872 280.207 46.981L280.698 46.1099C277.689 44.4132 274.702 42.7642 271.736 41.1629L271.261 42.0429ZM289.085 52.086C291.985 53.7852 294.907 55.5277 297.854 57.3135L298.372 56.4584C295.422 54.6701 292.495 52.925 289.59 51.2232L289.085 52.086ZM306.531 62.6541C309.386 64.4374 312.264 66.2601 315.167 68.1224L315.707 67.2807C312.801 65.4164 309.919 63.5915 307.06 61.806L306.531 62.6541ZM323.776 73.7131C326.577 75.5533 329.401 77.4291 332.25 79.3405L332.807 78.5101C329.956 76.597 327.129 74.7194 324.325 72.8774L323.776 73.7131ZM340.703 85.0667C343.498 86.9772 346.316 88.9209 349.16 90.8978L349.731 90.0767C346.885 88.0984 344.064 86.1533 341.268 84.2412L340.703 85.0667ZM357.491 96.7333C358.891 97.7214 360.298 98.7174 361.71 99.7211L362.29 98.9059C360.876 97.9015 359.468 96.905 358.067 95.9162L357.491 96.7333ZM361.65 99.6703C362.864 100.862 364.074 102.041 365.28 103.208L365.976 102.49C364.771 101.324 363.563 100.147 362.35 98.9566L361.65 99.6703ZM372.48 110.069C374.96 112.395 377.424 114.669 379.874 116.891L380.546 116.15C378.1 113.932 375.64 111.662 373.164 109.34L372.48 110.069ZM387.356 123.552C389.897 125.772 392.424 127.935 394.938 130.042L395.581 129.276C393.072 127.173 390.55 125.014 388.014 122.799L387.356 123.552ZM402.664 136.375C405.315 138.498 407.953 140.559 410.579 142.558L411.185 141.762C408.565 139.768 405.934 137.713 403.29 135.595L402.664 136.375ZM418.632 148.52C421.378 150.495 424.113 152.402 426.839 154.244L427.399 153.415C424.681 151.579 421.954 149.677 419.216 147.708L418.632 148.52ZM435.213 159.709C438.071 161.508 440.922 163.234 443.766 164.889L444.269 164.025C441.435 162.376 438.594 160.656 435.746 158.862L435.213 159.709ZM452.512 169.761C455.497 171.349 458.478 172.86 461.458 174.293L461.891 173.392C458.924 171.965 455.955 170.46 452.982 168.878L452.512 169.761ZM470.581 178.445C473.677 179.774 476.775 181.021 479.877 182.188L480.229 181.252C477.142 180.09 474.058 178.849 470.975 177.526L470.581 178.445ZM489.336 185.496C492.529 186.529 495.729 187.479 498.941 188.348L499.202 187.383C496.006 186.518 492.821 185.572 489.643 184.545L489.336 185.496ZM508.673 190.731C511.936 191.446 515.214 192.08 518.509 192.637L518.675 191.65C515.396 191.097 512.135 190.465 508.887 189.754L508.673 190.731ZM528.424 194.068C531.727 194.465 535.049 194.787 538.395 195.035L538.469 194.038C535.138 193.791 531.831 193.471 528.544 193.075L528.424 194.068ZM548.397 195.556C551.71 195.657 555.047 195.689 558.411 195.655L558.401 194.655C555.05 194.689 551.726 194.657 548.428 194.557L548.397 195.556ZM568.42 195.358C571.721 195.198 575.051 194.978 578.411 194.697L578.328 193.701C574.979 193.98 571.661 194.2 568.372 194.359L568.42 195.358ZM588.376 193.703C591.655 193.324 594.966 192.891 598.309 192.406L598.166 191.416C594.831 191.9 591.531 192.331 588.261 192.71L588.376 193.703ZM608.21 190.835C611.462 190.276 614.747 189.67 618.065 189.02L617.872 188.038C614.561 188.688 611.285 189.291 608.041 189.849L608.21 190.835ZM627.842 186.994C631.057 186.293 634.304 185.553 637.586 184.773L637.354 183.8C634.079 184.579 630.838 185.318 627.629 186.017L627.842 186.994ZM647.303 182.378C650.504 181.561 653.737 180.709 657.005 179.823L656.743 178.858C653.48 179.743 650.252 180.593 647.056 181.409L647.303 182.378ZM666.64 177.142C669.8 176.241 672.992 175.31 676.218 174.349L675.932 173.391C672.711 174.35 669.522 175.28 666.366 176.18L666.64 177.142ZM685.797 171.443C688.962 170.465 692.158 169.461 695.387 168.432L695.083 167.479C691.857 168.508 688.663 169.511 685.502 170.487L685.797 171.443ZM704.855 165.371C706.448 164.849 708.048 164.322 709.657 163.788L709.343 162.839C707.735 163.372 706.135 163.899 704.543 164.421L704.855 165.371ZM709.635 163.795C711.249 163.341 712.853 162.894 714.448 162.453L714.182 161.489C712.585 161.93 710.98 162.378 709.365 162.832L709.635 163.795ZM723.912 159.888C727.15 159.027 730.349 158.195 733.512 157.391L733.266 156.422C730.099 157.227 726.896 158.06 723.655 158.921L723.912 159.888ZM743.082 155.019C746.305 154.241 749.49 153.494 752.636 152.778L752.414 151.803C749.263 152.52 746.075 153.268 742.848 154.047L743.082 155.019ZM762.297 150.653C765.564 149.961 768.789 149.303 771.975 148.682L771.784 147.7C768.592 148.323 765.361 148.981 762.089 149.675L762.297 150.653ZM781.657 146.882C784.931 146.304 788.162 145.766 791.352 145.268L791.198 144.28C788.001 144.779 784.763 145.318 781.483 145.897L781.657 146.882ZM801.104 143.855C804.416 143.413 807.683 143.017 810.908 142.667L810.8 141.673C807.567 142.024 804.291 142.421 800.972 142.864L801.104 143.855ZM820.725 141.733C824.046 141.463 827.322 141.244 830.556 141.078L830.504 140.079C827.26 140.246 823.974 140.465 820.644 140.736L820.725 141.733ZM840.397 140.729C843.721 140.667 847.002 140.662 850.241 140.716L850.258 139.716C847.006 139.662 843.714 139.667 840.378 139.729L840.397 140.729ZM860.078 141.067C863.391 141.249 866.661 141.497 869.893 141.809L869.989 140.814C866.743 140.5 863.459 140.252 860.134 140.068L860.078 141.067ZM879.666 142.968C882.939 143.43 886.175 143.962 889.377 144.565L889.562 143.582C886.345 142.977 883.094 142.442 879.806 141.978L879.666 142.968ZM899.001 146.614C902.202 147.375 905.372 148.211 908.515 149.121L908.793 148.16C905.634 147.246 902.449 146.406 899.232 145.641L899.001 146.614ZM917.896 152.085C920.994 153.146 924.069 154.283 927.126 155.495L927.494 154.566C924.423 153.348 921.333 152.206 918.221 151.139L917.896 152.085ZM936.186 159.334C939.159 160.675 942.118 162.089 945.067 163.577L945.517 162.684C942.556 161.189 939.584 159.769 936.597 158.423L936.186 159.334ZM953.76 168.194C956.6 169.777 959.434 171.429 962.265 173.153L962.785 172.298C959.943 170.569 957.098 168.91 954.247 167.32L953.76 168.194ZM970.584 178.42C973.295 180.203 976.006 182.051 978.722 183.964L979.298 183.147C976.574 181.228 973.853 179.374 971.133 177.585L970.584 178.42ZM986.69 189.754C989.286 191.697 991.889 193.7 994.5 195.762L995.12 194.977C992.502 192.91 989.893 190.902 987.29 188.954L986.69 189.754ZM1002.17 201.964C1004.67 204.034 1007.18 206.159 1009.7 208.338L1010.35 207.582C1007.82 205.398 1005.31 203.269 1002.8 201.194L1002.17 201.964ZM1017.12 214.867C1019.53 217.025 1021.95 219.232 1024.38 221.488L1025.06 220.754C1022.62 218.494 1020.2 216.284 1017.79 214.122L1017.12 214.867ZM1031.56 228.226C1032.75 229.363 1033.95 230.513 1035.15 231.673L1035.85 230.954C1034.64 229.792 1033.44 228.641 1032.25 227.502L1031.56 228.226ZM1035.13 231.652C1036.28 232.898 1037.43 234.134 1038.57 235.359L1039.3 234.678C1038.16 233.453 1037.02 232.219 1035.87 230.975L1035.13 231.652ZM1045.38 242.594C1047.7 245.042 1050.02 247.448 1052.32 249.811L1053.03 249.114C1050.74 246.753 1048.43 244.35 1046.1 241.905L1045.38 242.594ZM1059.28 256.874C1061.66 259.264 1064.03 261.607 1066.39 263.905L1067.09 263.189C1064.74 260.894 1062.37 258.554 1059.99 256.168L1059.28 256.874ZM1073.59 270.816C1076.03 273.114 1078.45 275.364 1080.85 277.564L1081.53 276.826C1079.12 274.629 1076.71 272.384 1074.28 270.089L1073.59 270.816ZM1088.31 284.253C1090.84 286.481 1093.36 288.654 1095.87 290.773L1096.52 290.009C1094.01 287.895 1091.5 285.726 1088.97 283.502L1088.31 284.253ZM1103.53 297.104C1106.15 299.219 1108.77 301.274 1111.37 303.271L1111.98 302.478C1109.38 300.486 1106.78 298.436 1104.16 296.325L1103.53 297.104ZM1119.38 309.254C1122.11 311.231 1124.83 313.144 1127.55 314.992L1128.11 314.165C1125.4 312.323 1122.69 310.416 1119.97 308.444L1119.38 309.254ZM1135.87 320.467C1138.7 322.267 1141.53 323.996 1144.36 325.656L1144.87 324.794C1142.05 323.14 1139.23 321.417 1136.4 319.623L1135.87 320.467ZM1153.08 330.552C1156.04 332.143 1159.01 333.659 1161.97 335.1L1162.41 334.2C1159.46 332.766 1156.5 331.256 1153.55 329.671L1153.08 330.552ZM1171.05 339.267C1174.12 340.599 1177.2 341.851 1180.29 343.025L1180.65 342.09C1177.57 340.922 1174.51 339.675 1171.44 338.349L1171.05 339.267ZM1189.7 346.348C1192.88 347.385 1196.06 348.34 1199.26 349.214L1199.53 348.25C1196.34 347.38 1193.17 346.429 1190.01 345.397L1189.7 346.348ZM1208.95 351.608C1212.2 352.326 1215.47 352.963 1218.75 353.52L1218.92 352.534C1215.65 351.98 1212.4 351.346 1209.17 350.632L1208.95 351.608ZM1228.64 354.949C1231.93 355.343 1235.24 355.661 1238.58 355.902L1238.65 354.904C1235.33 354.664 1232.03 354.349 1228.76 353.956L1228.64 354.949ZM1248.54 356.393C1251.84 356.482 1255.17 356.499 1258.52 356.445L1258.5 355.445C1255.16 355.499 1251.85 355.482 1248.57 355.393L1248.54 356.393ZM1268.49 356.083C1271.77 355.898 1275.09 355.649 1278.44 355.335L1278.34 354.339C1275.01 354.652 1271.7 354.901 1268.43 355.085L1268.49 356.083ZM1288.36 354.229C1291.63 353.808 1294.93 353.33 1298.26 352.793L1298.1 351.806C1294.78 352.341 1291.49 352.818 1288.23 353.237L1288.36 354.229ZM1308.06 351.068C1311.28 350.454 1314.53 349.789 1317.82 349.073L1317.6 348.096C1314.33 348.81 1311.09 349.473 1307.88 350.085L1308.06 351.068ZM1327.54 346.83C1330.74 346.052 1333.97 345.228 1337.24 344.359L1336.98 343.392C1333.72 344.26 1330.5 345.082 1327.3 345.859L1327.54 346.83ZM1346.82 341.706C1349.97 340.802 1353.15 339.858 1356.36 338.874L1356.07 337.918C1352.86 338.9 1349.69 339.843 1346.55 340.745L1346.82 341.706ZM1365.9 335.867C1369.02 334.856 1372.17 333.81 1375.35 332.728L1375.03 331.781C1371.85 332.861 1368.71 333.906 1365.59 334.915L1365.9 335.867ZM1384.74 329.466C1387.86 328.363 1391 327.229 1394.17 326.062L1393.82 325.123C1390.65 326.289 1387.52 327.422 1384.41 328.524L1384.74 329.466ZM1403.46 322.585C1405.03 321.991 1406.6 321.389 1408.18 320.78L1407.82 319.847C1406.24 320.455 1404.67 321.057 1403.11 321.65L1403.46 322.585ZM1408.15 320.791C1409.77 320.293 1411.37 319.805 1412.96 319.327L1412.67 318.37C1411.08 318.848 1409.47 319.337 1407.85 319.836L1408.15 320.791ZM1422.51 316.531C1425.77 315.604 1428.96 314.724 1432.1 313.894L1431.84 312.927C1428.7 313.759 1425.5 314.64 1422.23 315.569L1422.51 316.531ZM1441.73 311.448C1445.03 310.65 1448.25 309.912 1451.4 309.234L1451.19 308.257C1448.03 308.936 1444.8 309.676 1441.49 310.476L1441.73 311.448ZM1461.17 307.292C1464.52 306.681 1467.8 306.146 1470.99 305.689L1470.85 304.699C1467.64 305.158 1464.36 305.695 1460.99 306.308L1461.17 307.292ZM1480.84 304.504C1484.23 304.177 1487.54 303.948 1490.76 303.82L1490.72 302.82C1487.48 302.95 1484.15 303.18 1480.74 303.509L1480.84 304.504ZM1500.66 303.747C1504.06 303.839 1507.36 304.057 1510.57 304.403L1510.68 303.409C1507.44 303.06 1504.11 302.84 1500.69 302.747L1500.66 303.747ZM1520.36 305.906C1523.64 306.569 1526.83 307.383 1529.95 308.353L1530.24 307.398C1527.1 306.418 1523.87 305.595 1520.56 304.926L1520.36 305.906ZM1539.23 311.796C1542.25 313.104 1545.2 314.575 1548.09 316.213L1548.58 315.343C1545.66 313.688 1542.68 312.201 1539.63 310.879L1539.23 311.796ZM1556.45 321.52C1559.1 323.391 1561.71 325.416 1564.3 327.598L1564.94 326.834C1562.34 324.634 1559.7 322.591 1557.03 320.702L1556.45 321.52ZM1571.6 334.276C1573.91 336.537 1576.19 338.931 1578.46 341.461L1579.21 340.792C1576.92 338.249 1574.62 335.839 1572.31 333.562L1571.6 334.276ZM1584.9 349.014C1586.93 351.527 1588.96 354.152 1591 356.889L1591.8 356.293C1589.76 353.545 1587.72 350.91 1585.67 348.385L1584.9 349.014ZM1596.77 364.951C1597.71 366.307 1598.64 367.687 1599.58 369.092L1600.42 368.535C1599.47 367.127 1598.53 365.743 1597.59 364.383L1596.77 364.951Z" fill="white" fill-opacity="0.3"/>
</svg>
